<svg width="250" height="61" viewBox="0 0 250 61" fill="black" xmlns="http://www.w3.org/2000/svg">
<g clip-path="url(#clip0)">
<path d="M0 0V60.8806H60.8785V0H0ZM59.3186 59.1844H1.76129V1.62706H59.3186V59.1844Z" fill="white"/>
<path d="M75.3858 0H73.7587V60.8806H75.3858V0Z" fill="white"/>
<path d="M97.5383 23.4541C98.4187 23.8863 99.1674 24.5464 99.7063 25.3659C100.203 26.1598 100.53 27.0484 100.664 27.9753C100.8 28.6532 100.868 29.7379 100.868 31.2294H90.4362C90.4809 32.729 90.8199 33.9324 91.4531 34.8395C92.0863 35.7465 93.0774 36.2008 94.4265 36.2021C95.6766 36.2021 96.6739 35.7743 97.4183 34.9188C97.8456 34.4191 98.1549 33.8296 98.3233 33.1941H100.674C100.583 33.831 100.377 34.4458 100.064 35.0083C99.7592 35.6088 99.3619 36.1579 98.8867 36.6353C98.1469 37.3785 97.2108 37.8956 96.1878 38.1261C95.5481 38.281 94.8915 38.3554 94.2333 38.3478C93.3813 38.3588 92.5371 38.185 91.7587 37.8384C90.9804 37.4919 90.2863 36.9808 89.7243 36.3404C88.4823 35.0049 87.8613 33.1283 87.8613 30.7108C87.8613 28.3366 88.4816 26.4086 89.7223 24.9266C90.9629 23.4446 92.5852 22.7036 94.5892 22.7036C95.6188 22.7092 96.6313 22.9669 97.5383 23.4541ZM98.4169 29.2586C98.3193 28.1821 98.0935 27.3218 97.7396 26.6777C97.0834 25.4818 95.9885 24.8839 94.455 24.8839C93.9318 24.8751 93.4129 24.9811 92.9351 25.1943C92.4572 25.4076 92.0319 25.7231 91.689 26.1184C90.9446 26.9428 90.55 27.9895 90.5053 29.2586H98.4169Z" fill="white"/>
<path d="M104.691 17.552H107.366V25.9314H117.535V17.552H120.199V37.8292H117.527V28.3475H107.358V37.8292H104.691V17.552Z" fill="white"/>
<path d="M133.338 23.4542C134.218 23.8864 134.967 24.5465 135.506 25.366C136.005 26.1588 136.333 27.0467 136.47 27.9733C136.605 28.6513 136.673 29.736 136.673 31.2275H126.236C126.28 32.7271 126.619 33.9304 127.252 34.8375C127.886 35.7446 128.877 36.1995 130.226 36.2022C131.476 36.2022 132.473 35.7744 133.218 34.9189C133.645 34.4192 133.954 33.8297 134.123 33.1942H136.47C136.378 33.831 136.172 34.4458 135.86 35.0083C135.555 35.6089 135.157 36.1579 134.682 36.6354C133.942 37.3789 133.005 37.8961 131.981 38.1262C131.341 38.281 130.685 38.3555 130.027 38.3479C129.175 38.3588 128.33 38.1851 127.552 37.8385C126.774 37.492 126.08 36.9809 125.518 36.3405C124.285 35.0009 123.669 33.1257 123.669 30.7149C123.669 28.3408 124.289 26.4127 125.53 24.9307C126.77 23.4488 128.393 22.7078 130.397 22.7078C131.423 22.7135 132.433 22.9697 133.338 23.4542ZM134.216 29.2587C134.119 28.1821 133.893 27.3218 133.539 26.6778C132.883 25.4819 131.788 24.884 130.254 24.884C129.731 24.8752 129.212 24.9811 128.734 25.1944C128.257 25.4077 127.831 25.7231 127.488 26.1185C126.744 26.9429 126.349 27.9896 126.305 29.2587H134.216Z" fill="white"/>
<path d="M147.739 28.8802C148.288 28.8069 148.656 28.5676 148.844 28.1622C148.964 27.8601 149.018 27.5354 149.002 27.2104C149.002 26.3643 148.712 25.7501 148.132 25.3677C147.551 24.9854 146.72 24.7942 145.638 24.7942C144.388 24.7942 143.501 25.144 142.978 25.8437C142.685 26.2301 142.495 26.805 142.406 27.5683H140.169C140.214 25.746 140.783 24.4783 141.878 23.7651C143.015 23.0398 144.341 22.6675 145.689 22.6953C147.365 22.6953 148.726 23.0268 149.773 23.6898C150.82 24.3529 151.338 25.3833 151.329 26.7813V35.2989C151.318 35.5161 151.371 35.7316 151.481 35.9192C151.583 36.0752 151.798 36.1531 152.126 36.1531C152.246 36.1525 152.367 36.1457 152.486 36.1328C152.622 36.1192 152.763 36.0982 152.911 36.0697V37.9002C152.633 37.9871 152.349 38.055 152.061 38.1036C151.796 38.1348 151.53 38.1484 151.264 38.1442C150.439 38.1442 149.841 37.8405 149.468 37.2331C149.243 36.8091 149.105 36.3444 149.061 35.8664C148.499 36.5911 147.781 37.1804 146.96 37.591C146.031 38.083 144.993 38.3346 143.942 38.3232C142.621 38.3232 141.542 37.907 140.704 37.0745C140.292 36.6674 139.967 36.1798 139.751 35.6421C139.535 35.1043 139.431 34.5278 139.447 33.9485C139.447 32.5777 139.859 31.5146 140.684 30.7594C141.508 30.0042 142.593 29.5398 143.938 29.3662L147.739 28.8802ZM142.699 35.5918C143.205 36.0059 143.842 36.2258 144.495 36.2121C145.346 36.208 146.183 35.9987 146.936 35.602C148.266 34.924 148.931 33.8244 148.931 32.3031V30.3038C148.581 30.5223 148.2 30.6856 147.8 30.7879C147.355 30.9136 146.902 31.0061 146.444 31.0645L144.993 31.2679C144.124 31.3872 143.473 31.5757 143.039 31.8333C142.303 32.2658 141.935 32.956 141.935 33.9037C141.923 34.2251 141.986 34.5449 142.118 34.8378C142.251 35.1307 142.45 35.3889 142.699 35.5918Z" fill="white"/>
<path d="M155.811 17.552H158.205V37.8292H155.811V17.552Z" fill="white"/>
<path d="M162.765 18.9146H165.185V23.0412H167.459V25.075H165.185V34.7235C165.185 35.2387 165.354 35.5838 165.692 35.7587C165.986 35.8804 166.305 35.9326 166.623 35.9112C166.739 35.9112 166.863 35.9112 166.996 35.9112C167.128 35.9112 167.284 35.8997 167.461 35.8767V37.8291C167.181 37.9129 166.894 37.9728 166.603 38.0081C166.283 38.046 165.961 38.0644 165.639 38.063C164.522 38.063 163.764 37.7661 163.365 37.1722C162.966 36.5783 162.767 35.8075 162.767 34.8598V25.075H160.839V23.0412H162.767L162.765 18.9146Z" fill="white"/>
<path d="M170.345 17.491H172.739V25.0548C173.163 24.4533 173.679 23.9221 174.268 23.4806C175.04 22.9559 176.002 22.6935 177.155 22.6935C179.221 22.6935 180.622 23.4433 181.356 24.9429C181.755 25.7564 181.954 26.8927 181.954 28.3516V37.8292H179.493V28.5123C179.493 27.4276 179.358 26.6317 179.087 26.1246C178.651 25.311 177.838 24.9043 176.646 24.9043C175.644 24.9074 174.68 25.2871 173.945 25.968C173.132 26.6771 172.725 28.016 172.725 29.9848V37.8292H170.345V17.491Z" fill="white"/>
<path d="M186.555 34.8213H189.335V37.8293H186.555V34.8213Z" fill="white"/>
<path d="M203.45 23.8324C204.456 24.6459 205.061 26.0397 205.266 28.0139H202.939C202.829 27.1812 202.489 26.3955 201.959 25.7442C201.453 25.1408 200.64 24.8391 199.518 24.8391C197.993 24.8391 196.902 25.612 196.246 27.1577C195.82 28.161 195.607 29.3989 195.607 30.8714C195.607 32.3439 195.909 33.5906 196.512 34.6116C197.116 35.6245 198.065 36.1309 199.36 36.1309C200.352 36.1309 201.139 35.8157 201.721 35.1852C202.303 34.5547 202.704 33.6917 202.925 32.5961H205.252C204.981 34.5567 204.315 35.9899 203.257 36.8956C202.198 37.8013 200.836 38.2542 199.173 38.2542C197.311 38.2542 195.826 37.5478 194.717 36.135C193.607 34.7221 193.054 32.9595 193.055 30.847C193.055 28.2519 193.665 26.2316 194.885 24.7862C195.441 24.0935 196.149 23.5378 196.954 23.1619C197.758 22.786 198.639 22.5999 199.526 22.6182C201.136 22.6182 202.444 23.0229 203.45 23.8324Z" fill="white"/>
<path d="M218.551 24.5239C219.819 25.7944 220.453 27.6628 220.453 30.1291C220.453 32.5128 219.894 34.4788 218.777 36.0272C217.659 37.5757 215.926 38.3533 213.576 38.36C211.617 38.36 210.058 37.6719 208.898 36.2957C207.739 34.9195 207.163 33.0721 207.17 30.7535C207.17 28.2682 207.78 26.29 209 24.8188C210.22 23.3477 211.851 22.6114 213.893 22.6101C214.759 22.5932 215.62 22.7544 216.421 23.0836C217.222 23.4128 217.947 23.903 218.551 24.5239ZM217.068 34.3595C217.67 33.0559 217.972 31.634 217.953 30.1983C217.953 28.818 217.74 27.6953 217.314 26.8303C216.636 25.4744 215.475 24.7965 213.83 24.7965C212.367 24.7965 211.304 25.3761 210.639 26.5354C209.975 27.6947 209.643 29.0933 209.643 30.7312C209.643 32.304 209.975 33.6151 210.639 34.6646C211.304 35.714 212.359 36.2388 213.804 36.2388C215.39 36.232 216.478 35.6049 217.068 34.3575V34.3595Z" fill="white"/>
<path d="M224.362 34.8213H227.142V37.8293H224.362V34.8213Z" fill="white"/>
<path d="M231.856 17.552H234.297V20.3689H231.856V17.552ZM231.856 23.1145H234.297V37.8292H231.856V23.1145Z" fill="white"/>
<path d="M246.25 23.5009C246.806 23.9051 247.296 24.3944 247.7 24.951V17.491H250V37.8292H247.846V35.773C247.376 36.5978 246.691 37.2801 245.865 37.7479C245.056 38.1648 244.156 38.3744 243.246 38.358C241.658 38.358 240.284 37.6658 239.123 36.2815C237.962 34.8971 237.381 33.0545 237.38 30.7536C237.38 28.6004 237.91 26.7347 238.969 25.1565C240.027 23.5782 241.541 22.7857 243.51 22.7789C244.6 22.7789 245.513 23.0196 246.25 23.5009ZM240.876 34.5853C241.523 35.6524 242.56 36.1859 243.988 36.1859C245.096 36.1859 246.007 35.691 246.721 34.7012C247.436 33.7114 247.793 32.2918 247.791 30.4424C247.791 28.574 247.423 27.191 246.687 26.2934C246.368 25.8724 245.956 25.5315 245.482 25.2978C245.009 25.0641 244.488 24.944 243.96 24.947C243.391 24.9342 242.829 25.058 242.318 25.3078C241.808 25.5577 241.365 25.9263 241.027 26.3829C240.277 27.3401 239.902 28.7482 239.902 30.6071C239.905 32.1921 240.23 33.5182 240.876 34.5853Z" fill="white"/>
<path d="M24.1354 23.4542C25.0258 23.8838 25.7849 24.5439 26.334 25.366C26.8376 26.1579 27.1688 27.047 27.3062 27.9754C27.4499 28.6533 27.5218 29.738 27.5218 31.2295H16.9296C16.9743 32.7291 17.3208 33.9325 17.9689 34.8396C18.617 35.7466 19.6197 36.2009 20.9769 36.2022C22.2447 36.2022 23.2568 35.7744 24.0134 34.9189C24.4457 34.4207 24.7593 33.8311 24.9307 33.1942H27.3184C27.2233 33.8324 27.011 34.4475 26.692 35.0084C26.3819 35.61 25.979 36.1591 25.4981 36.6354C24.7438 37.3808 23.7941 37.8976 22.7585 38.1262C22.1091 38.2812 21.4431 38.3557 20.7756 38.3479C19.9139 38.3602 19.0596 38.1873 18.2705 37.841C17.4814 37.4947 16.7758 36.983 16.2015 36.3405C14.9514 35.0009 14.3263 33.1257 14.3263 30.715C14.3263 28.3408 14.9561 26.4127 16.2157 24.9308C17.4753 23.4488 19.1207 22.7098 21.1518 22.7139C22.1914 22.7174 23.2148 22.9714 24.1354 23.4542ZM25.0161 29.2567C24.9171 28.1801 24.688 27.3198 24.3287 26.6758C23.6629 25.4799 22.5524 24.8819 20.9972 24.8819C20.468 24.8726 19.943 24.9781 19.4584 25.1912C18.9739 25.4043 18.5413 25.72 18.1906 26.1165C17.4353 26.9409 17.0354 27.9876 16.9906 29.2567H25.0161Z" fill="white"/>
<path d="M30.8938 17.552H33.6049V25.9314H43.9123V17.552H46.6234V37.8292H43.9123V28.3475H33.6049V37.8292H30.8938V17.552Z" fill="white"/>
</g>
<defs>
<clipPath id="clip0">
<rect width="250" height="60.8806" fill="black"/>
</clipPath>
</defs>
</svg>
